<?xml version="1.0" encoding="UTF-8"?><svg xmlns="http://www.w3.org/2000/svg" xmlns:xlink="http://www.w3.org/1999/xlink" height="284.8" preserveAspectRatio="xMidYMid meet" version="1.0" viewBox="43.2 75.3 345.4 284.8" width="345.4" zoomAndPan="magnify"><g><g id="change1_1"><path d="M 154.089844 230.507812 C 154.089844 242.242188 150.144531 268.28125 154.089844 278.980469 C 161.832031 299.988281 160.597656 307.929688 153.359375 324.816406 C 153.359375 324.816406 144.976562 323.089844 140.394531 331.148438 C 138.726562 334.078125 134.511719 344.417969 142.199219 344.417969 C 149.761719 344.417969 164.824219 343.4375 169.265625 343.4375 C 175.898438 343.4375 178.3125 337.40625 178.3125 327.757812 C 178.3125 319.316406 194.675781 300.160156 190.828125 293.378906 C 185.109375 283.28125 184.046875 282.144531 185.628906 276.1875 C 188.980469 263.558594 195.257812 250.164062 195.804688 232.3125 C 196.257812 217.609375 186.824219 190.699219 166.003906 190.699219 C 151.09375 190.699219 154.089844 196.960938 154.089844 230.507812" fill="#fff"/></g><g id="change1_2"><path d="M 180.300781 315.519531 C 176.703125 310.453125 173.101562 304.371094 166.886719 302.210938 C 164.441406 301.363281 161.925781 301.03125 159.339844 300.878906 C 158.882812 308.394531 156.863281 314.796875 152.910156 324.019531 C 152.910156 324.019531 144.511719 323.09375 139.78125 331.40625 C 138.066406 334.429688 133.71875 345.097656 141.648438 345.097656 C 149.449219 345.097656 164.230469 345.132812 168.816406 345.132812 C 175.660156 345.132812 178.902344 337.863281 178.902344 327.90625 C 178.902344 325.375 180.195312 321.089844 182.121094 317.273438 C 181.4375 316.441406 180.925781 316.398438 180.300781 315.519531" fill="#fff"/></g><g id="change2_1"><path d="M 140.46875 344.527344 C 140.238281 343.125 140.496094 341.726562 140.980469 340.417969 C 141.480469 339.113281 142.265625 337.882812 143.324219 336.878906 C 144.375 335.871094 145.707031 335.117188 147.121094 334.789062 C 148.535156 334.460938 150.011719 334.539062 151.304688 335.105469 C 150.015625 335.671875 148.890625 336.167969 147.894531 336.78125 C 146.894531 337.382812 146.015625 338.066406 145.191406 338.847656 C 144.363281 339.628906 143.601562 340.5 142.835938 341.453125 C 142.070312 342.40625 141.324219 343.421875 140.46875 344.527344" fill="#231f20"/></g><g id="change2_2"><path d="M 138.753906 336.949219 C 138.507812 335.742188 138.679688 334.476562 139.164062 333.316406 C 139.664062 332.15625 140.542969 331.097656 141.65625 330.386719 C 142.765625 329.664062 144.058594 329.3125 145.285156 329.277344 C 146.523438 329.242188 147.710938 329.488281 148.816406 330.054688 C 147.699219 330.617188 146.648438 330.96875 145.695312 331.371094 C 144.738281 331.765625 143.894531 332.171875 143.128906 332.664062 C 142.359375 333.160156 141.65625 333.738281 140.960938 334.460938 C 140.253906 335.1875 139.59375 336.015625 138.753906 336.949219" fill="#231f20"/></g><g id="change2_3"><path d="M 149.15625 344.980469 C 148.910156 343.769531 149.078125 342.507812 149.570312 341.347656 C 150.070312 340.1875 150.949219 339.125 152.0625 338.414062 C 153.171875 337.691406 154.460938 337.339844 155.6875 337.308594 C 156.925781 337.273438 158.109375 337.519531 159.222656 338.082031 C 158.105469 338.644531 157.054688 338.996094 156.105469 339.398438 C 155.144531 339.792969 154.300781 340.203125 153.527344 340.695312 C 152.765625 341.191406 152.0625 341.769531 151.363281 342.492188 C 150.660156 343.214844 150 344.042969 149.15625 344.980469" fill="#231f20"/></g><g id="change1_3"><path d="M 297.0625 268.558594 C 278.003906 264.460938 232.503906 260.058594 209.347656 298.171875 C 209.128906 298.53125 208.90625 298.882812 208.683594 299.222656 L 208.65625 299.128906 C 208.5625 299.316406 208.464844 299.503906 208.371094 299.6875 C 208.199219 299.945312 208.019531 300.210938 207.851562 300.460938 L 207.855469 300.675781 C 195.367188 323.308594 158.984375 321.183594 158.984375 321.183594 C 154.378906 305.320312 129.242188 302.984375 133.875 318.925781 C 135.570312 324.769531 138.125 333.554688 138.125 333.554688 C 142.34375 345.308594 149.472656 344.175781 156.726562 343.042969 C 159.769531 342.566406 162.832031 342.09375 165.714844 342.566406 C 177.996094 344.59375 193.75 345.636719 202.792969 344.539062 C 204.355469 344.347656 210.953125 342.535156 211.988281 341.632812 C 211.992188 341.644531 213.09375 341.171875 214.492188 340.707031 C 216.273438 340.105469 218.539062 339.507812 219.617188 339.902344 C 274.414062 360.023438 320.402344 348.652344 326.015625 311.496094 C 328.699219 293.683594 314.421875 272.285156 297.0625 268.558594" fill="#fff"/></g><g id="change1_4"><path d="M 183.171875 321.210938 C 182.738281 321.195312 182.511719 321.183594 182.511719 321.183594 C 182.355469 320.65625 182.183594 320.148438 181.984375 319.652344 C 182.378906 320.179688 182.773438 320.695312 183.171875 321.210938" fill="#fff"/></g><g id="change1_5"><path d="M 181.859375 325.640625 C 181.449219 323.703125 180.910156 320.851562 180.402344 318.9375 C 169.394531 320.144531 158.992188 320.136719 158.992188 320.136719 C 154.292969 303.945312 128.234375 302.613281 132.960938 318.878906 C 134.695312 324.851562 137.300781 333.8125 137.300781 333.8125 C 141.632812 345.890625 149.136719 344.851562 156.6875 343.816406 C 159.78125 343.390625 162.882812 342.964844 165.773438 343.441406 C 170.300781 344.1875 176.238281 344.644531 182.136719 344.421875 C 183.164062 338.1875 183.214844 332.082031 181.859375 325.640625" fill="#fff"/></g><g id="change2_4"><path d="M 132.90625 312.21875 C 134.191406 311.609375 135.605469 311.464844 137 311.5625 C 138.394531 311.679688 139.796875 312.089844 141.054688 312.824219 C 142.3125 313.550781 143.402344 314.621094 144.117188 315.890625 C 144.828125 317.15625 145.164062 318.597656 144.984375 319.996094 C 144.074219 318.914062 143.285156 317.976562 142.417969 317.1875 C 141.5625 316.394531 140.660156 315.742188 139.679688 315.167969 C 138.703125 314.59375 137.652344 314.101562 136.523438 313.636719 C 135.394531 313.164062 134.214844 312.734375 132.90625 312.21875" fill="#231f20"/></g><g id="change2_5"><path d="M 139.710938 308.457031 C 140.796875 307.878906 142.058594 307.691406 143.3125 307.839844 C 144.566406 307.996094 145.828125 308.546875 146.820312 309.414062 C 147.820312 310.277344 148.523438 311.414062 148.894531 312.589844 C 149.269531 313.769531 149.367188 314.976562 149.140625 316.195312 C 148.28125 315.28125 147.652344 314.367188 147 313.566406 C 146.363281 312.761719 145.726562 312.0625 145.035156 311.460938 C 144.351562 310.859375 143.601562 310.347656 142.714844 309.882812 C 141.820312 309.40625 140.839844 309.007812 139.710938 308.457031" fill="#231f20"/></g><g id="change2_6"><path d="M 133.796875 320.535156 C 134.886719 319.960938 136.148438 319.773438 137.398438 319.921875 C 138.65625 320.074219 139.921875 320.625 140.910156 321.496094 C 141.910156 322.359375 142.605469 323.496094 142.988281 324.664062 C 143.359375 325.847656 143.460938 327.054688 143.230469 328.277344 C 142.371094 327.363281 141.742188 326.449219 141.09375 325.648438 C 140.449219 324.839844 139.816406 324.140625 139.128906 323.542969 C 138.4375 322.941406 137.6875 322.429688 136.804688 321.960938 C 135.90625 321.484375 134.929688 321.085938 133.796875 320.535156" fill="#231f20"/></g><g id="change3_1"><path d="M 329.9375 340.574219 C 359.433594 301.292969 343.28125 231.144531 282.265625 204.421875 C 220.296875 177.277344 226.496094 142.898438 226.496094 142.898438 L 153.785156 173.976562 C 153.785156 173.976562 153.785156 207.378906 153.785156 251.914062 C 153.785156 279.949219 184.917969 334.296875 205.785156 340.574219 L 329.9375 340.574219" fill="#f3aa46"/></g><g id="change4_1"><path d="M 282.617188 204.269531 C 220.652344 177.128906 226.847656 142.75 226.847656 142.75 L 207.308594 151.101562 C 208.167969 157.367188 213.558594 185.8125 241.859375 202.914062 C 273.808594 222.214844 301.347656 239.101562 301.347656 275.285156 C 301.347656 299.171875 310.703125 325.679688 323.71875 340.425781 L 330.292969 340.425781 C 359.789062 301.144531 343.636719 230.992188 282.617188 204.269531" fill="#ef773b"/></g><g id="change3_2"><path d="M 349.429688 270.53125 C 349.429688 270.53125 361.59375 246.132812 353.109375 219.945312 C 344.628906 193.753906 371.859375 177.777344 376.792969 173.640625 C 376.792969 173.640625 364.914062 200.175781 370.492188 214.0625 C 380.546875 239.097656 388.609375 286.367188 340.421875 311.898438 C 340.421875 311.898438 333.71875 282.96875 349.429688 270.53125" fill="#f3aa46"/></g><g id="change1_6"><path d="M 353.109375 219.945312 C 353.199219 220.148438 359.8125 221.109375 362.523438 220.226562 C 368.910156 218.144531 370.796875 215.242188 370.492188 214.0625 C 366.324219 198.078125 378.234375 171.238281 378.234375 171.238281 C 373.300781 175.382812 340.464844 189.300781 353.109375 219.945312" fill="#fff"/></g><g id="change3_3"><path d="M 152.480469 76.0625 C 152.480469 76.0625 142.855469 77.484375 132.550781 81.902344 C 120.914062 86.894531 108.046875 93.140625 100.757812 99.082031 C 94.296875 104.351562 92.066406 108.410156 94.269531 115.5625 C 98.113281 128.039062 107.210938 158.433594 112.074219 174.726562 C 114.011719 181.214844 118.214844 183.789062 122.097656 180.738281 C 129.582031 174.875 140.628906 163.953125 141.113281 150.296875 C 141.855469 129.546875 152.480469 76.0625 152.480469 76.0625" fill="#f3aa46"/></g><g id="change3_4"><path d="M 222.640625 127.859375 L 215.691406 87.59375 L 204.5625 76.519531 C 204.5625 76.519531 196.734375 75.257812 194.585938 75.484375 C 189.371094 76.035156 180.4375 77.949219 175.183594 77.929688 L 175.183594 77.984375 L 175.179688 77.929688 C 169.929688 77.976562 160.984375 76.113281 155.765625 75.589844 C 153.613281 75.378906 140.480469 78.355469 134.722656 87.816406 C 129.40625 96.539062 128 128.117188 128 128.117188 C 124.769531 134.136719 120.140625 153.226562 131.285156 160.644531 C 149.269531 172.613281 153.285156 181.777344 169.042969 181.734375 L 175.464844 181.71875 L 175.46875 181.671875 L 175.472656 181.71875 L 181.886719 181.699219 C 197.648438 181.65625 201.609375 172.464844 219.53125 160.398438 C 230.636719 152.921875 225.902344 133.859375 222.640625 127.859375" fill="#f3aa46"/></g><g id="change1_7"><path d="M 185 135.808594 L 180.28125 77.535156 C 179.035156 77.664062 176.523438 77.8125 175.246094 77.855469 C 174.027344 77.898438 172.554688 77.953125 170.324219 77.648438 L 165.671875 136.121094 C 153.785156 138.800781 143.054688 146.121094 143.082031 155.871094 C 143.097656 161.703125 150.960938 174.539062 155.390625 178.496094 C 159.199219 180.550781 163.339844 181.71875 168.980469 181.699219 L 175.398438 181.683594 L 175.40625 181.636719 L 175.40625 181.683594 L 181.824219 181.667969 C 187.464844 181.648438 191.59375 180.460938 195.394531 178.386719 C 199.808594 174.40625 207.71875 159.132812 207.699219 153.304688 C 207.675781 143.585938 196.894531 137.8125 185 135.808594" fill="#fff"/></g><g id="change2_7"><path d="M 207.703125 122.988281 C 207.71875 126.398438 205.96875 129.164062 203.800781 129.171875 C 201.640625 129.179688 199.875 126.417969 199.867188 123.007812 C 199.859375 119.601562 201.605469 116.828125 203.773438 116.824219 C 205.9375 116.816406 207.695312 119.578125 207.703125 122.988281" fill="#231f20"/></g><g id="change2_8"><path d="M 150.742188 123.140625 C 150.75 126.550781 149.007812 129.320312 146.84375 129.324219 C 144.675781 129.332031 142.914062 126.574219 142.90625 123.164062 C 142.894531 119.757812 144.644531 116.988281 146.808594 116.980469 C 148.96875 116.972656 150.734375 119.734375 150.742188 123.140625" fill="#231f20"/></g><g id="change3_5"><path d="M 204.105469 76.453125 C 204.105469 76.453125 204.644531 76.496094 220.660156 79.59375 C 231.105469 81.609375 243.335938 85 255.210938 90.675781 C 262.402344 94.117188 261.5625 104.378906 259.523438 111.675781 C 255.621094 125.644531 247.90625 157.367188 244.496094 171.484375 C 243.460938 175.804688 238.234375 177.144531 232.703125 174.246094 C 224.304688 169.847656 213.71875 161.816406 213.6875 149.300781 C 213.601562 118.449219 213.507812 108.410156 213.460938 91.589844 C 213.4375 84.410156 204.105469 76.453125 204.105469 76.453125" fill="#f3aa46"/></g><g id="change2_9"><path d="M 157.996094 134.492188 C 159.046875 130.144531 166.144531 129.085938 175.054688 129.058594 C 185.828125 129.03125 191.007812 130.074219 191.90625 134.398438 C 192.964844 139.488281 182.820312 148.269531 174.457031 148.292969 C 167.660156 148.3125 156.730469 139.757812 157.996094 134.492188" fill="#231f20"/></g><g id="change2_10"><path d="M 211.402344 153.492188 L 211.148438 153.507812 L 211.148438 153.511719 C 208.59375 156.242188 205.796875 158.78125 202.789062 161.007812 C 201.277344 162.109375 199.714844 163.128906 198.066406 163.964844 C 196.429688 164.796875 194.6875 165.453125 192.949219 165.652344 C 192.515625 165.699219 192.09375 165.71875 191.660156 165.699219 C 191.222656 165.683594 190.777344 165.640625 190.34375 165.578125 C 189.464844 165.449219 188.609375 165.226562 187.773438 164.929688 C 186.105469 164.332031 184.546875 163.429688 183.109375 162.359375 C 181.675781 161.289062 180.359375 160.046875 179.15625 158.707031 C 178.554688 158.035156 177.980469 157.339844 177.441406 156.621094 C 177.167969 156.265625 176.90625 155.902344 176.652344 155.539062 C 176.40625 155.183594 176.140625 154.785156 175.945312 154.457031 C 175.820312 154.246094 175.632812 154.050781 175.402344 153.917969 C 175.269531 153.839844 175.929688 146.941406 175.929688 146.941406 L 173.136719 146.949219 C 173.136719 146.949219 173.449219 154.101562 173.242188 154.433594 L 173.226562 154.464844 C 173.023438 154.789062 172.769531 155.1875 172.523438 155.550781 C 172.269531 155.914062 172.007812 156.277344 171.738281 156.636719 C 171.195312 157.355469 170.625 158.050781 170.03125 158.726562 C 168.832031 160.066406 167.523438 161.316406 166.09375 162.394531 C 164.664062 163.46875 163.105469 164.371094 161.445312 164.976562 C 160.613281 165.277344 159.757812 165.503906 158.886719 165.632812 C 158.449219 165.699219 158.015625 165.742188 157.570312 165.761719 L 157.414062 165.769531 L 156.929688 165.769531 C 156.71875 165.761719 156.503906 165.742188 156.285156 165.722656 C 154.558594 165.527344 152.816406 164.878906 151.179688 164.058594 C 149.53125 163.230469 147.960938 162.21875 146.449219 161.121094 C 143.4375 158.914062 140.632812 156.390625 138.070312 153.671875 L 138.0625 153.664062 C 137.976562 153.570312 137.832031 153.5625 137.730469 153.640625 C 137.628906 153.726562 137.609375 153.871094 137.699219 153.972656 C 140.121094 156.871094 142.777344 159.570312 145.722656 162.007812 C 147.199219 163.222656 148.757812 164.355469 150.449219 165.335938 C 152.136719 166.304688 153.96875 167.144531 156.027344 167.492188 C 156.277344 167.535156 156.539062 167.574219 156.804688 167.597656 C 156.933594 167.605469 157.0625 167.617188 157.207031 167.621094 L 157.394531 167.632812 L 157.59375 167.636719 C 158.105469 167.644531 158.621094 167.621094 159.132812 167.574219 C 160.152344 167.484375 161.164062 167.277344 162.144531 166.988281 C 164.101562 166.402344 165.914062 165.480469 167.574219 164.378906 C 169.234375 163.273438 170.742188 161.992188 172.132812 160.605469 C 172.824219 159.914062 173.488281 159.195312 174.125 158.445312 C 174.289062 158.257812 174.441406 158.0625 174.601562 157.867188 C 174.757812 158.058594 174.910156 158.253906 175.070312 158.441406 C 175.714844 159.183594 176.382812 159.898438 177.082031 160.585938 C 178.476562 161.960938 179.996094 163.230469 181.664062 164.324219 C 183.328125 165.414062 185.148438 166.324219 187.105469 166.894531 C 188.085938 167.179688 189.097656 167.378906 190.117188 167.464844 C 190.625 167.507812 191.140625 167.523438 191.648438 167.511719 C 192.171875 167.503906 192.703125 167.445312 193.214844 167.359375 C 195.261719 166.996094 197.085938 166.144531 198.765625 165.167969 C 200.441406 164.179688 201.988281 163.03125 203.457031 161.8125 C 206.382812 159.355469 209.019531 156.640625 211.421875 153.730469 L 211.402344 153.492188" fill="#231f20"/></g><g id="change3_6"><path d="M 320.589844 268.558594 C 301.523438 264.460938 256.027344 260.058594 232.867188 298.171875 C 232.648438 298.53125 232.425781 298.882812 232.203125 299.222656 L 232.175781 299.128906 C 232.085938 299.316406 231.988281 299.503906 231.898438 299.6875 C 231.722656 299.945312 231.546875 300.210938 231.371094 300.460938 L 231.375 300.675781 C 218.886719 323.308594 182.511719 321.183594 182.511719 321.183594 C 177.902344 305.320312 152.765625 302.984375 157.394531 318.925781 C 159.097656 324.769531 161.648438 333.554688 161.648438 333.554688 C 165.867188 345.308594 172.992188 344.175781 180.246094 343.042969 C 183.289062 342.566406 186.355469 342.09375 189.238281 342.566406 C 201.519531 344.59375 217.269531 345.636719 226.316406 344.539062 C 227.878906 344.347656 234.480469 342.535156 235.511719 341.632812 C 235.511719 341.644531 236.613281 341.171875 238.011719 340.707031 C 239.796875 340.105469 242.058594 339.507812 243.140625 339.902344 C 297.9375 360.023438 343.925781 348.652344 349.535156 311.496094 C 352.222656 293.683594 337.941406 272.285156 320.589844 268.558594" fill="#f3aa46"/></g><g id="change1_8"><path d="M 349.859375 307.039062 C 349.859375 306.742188 349.855469 306.449219 349.847656 306.152344 C 349.851562 306.152344 349.847656 306.152344 349.851562 306.152344 C 349.859375 306.449219 349.863281 306.742188 349.859375 307.039062" fill="#fff"/></g><g id="change5_1"><path d="M 203.558594 319.121094 C 214.03125 315.816406 225.621094 311.0625 231.375 300.636719 L 231.375 300.675781 C 225.382812 311.53125 213.890625 316.691406 203.558594 319.121094 M 231.371094 300.460938 L 231.371094 300.421875 C 231.546875 300.171875 231.722656 299.910156 231.898438 299.648438 C 231.988281 299.464844 232.085938 299.28125 232.175781 299.089844 L 232.203125 299.1875 C 232.425781 298.84375 232.648438 298.492188 232.867188 298.132812 C 248.695312 272.085938 274.957031 265.894531 296.082031 265.894531 C 297.652344 265.894531 299.191406 265.929688 300.695312 265.992188 C 300.699219 266.003906 300.699219 266.019531 300.703125 266.03125 C 299.195312 265.96875 297.65625 265.933594 296.085938 265.933594 C 274.960938 265.933594 248.695312 272.121094 232.867188 298.171875 C 232.648438 298.53125 232.425781 298.882812 232.203125 299.222656 L 232.175781 299.128906 C 232.085938 299.316406 231.988281 299.503906 231.898438 299.6875 C 231.722656 299.945312 231.546875 300.210938 231.371094 300.460938" fill="#f7bc61"/></g><g id="change6_1"><path d="M 341.199219 282.804688 C 335.871094 275.699219 328.554688 270.269531 320.589844 268.558594 C 315.523438 267.46875 308.585938 266.359375 300.703125 266.03125 C 300.699219 266.019531 300.699219 266.003906 300.695312 265.992188 C 308.582031 266.320312 315.519531 267.433594 320.589844 268.519531 C 328.558594 270.234375 335.878906 275.671875 341.207031 282.777344 C 341.203125 282.785156 341.203125 282.796875 341.199219 282.804688" fill="#f39051"/></g><g id="change5_2"><path d="M 349.847656 306.152344 C 349.621094 298.050781 346.335938 289.652344 341.199219 282.804688 C 341.203125 282.796875 341.203125 282.785156 341.207031 282.777344 C 346.347656 289.632812 349.628906 298.039062 349.851562 306.152344 C 349.847656 306.152344 349.851562 306.152344 349.847656 306.152344" fill="#f7bc61"/></g><g id="change5_3"><path d="M 186.035156 331.628906 C 183.816406 331.628906 182.511719 331.550781 182.511719 331.550781 C 180.570312 324.875 191.300781 322.992188 203.558594 319.121094 C 213.890625 316.691406 225.382812 311.53125 231.375 300.675781 L 231.375 300.636719 L 231.371094 300.460938 C 231.546875 300.210938 231.722656 299.945312 231.898438 299.6875 C 231.988281 299.503906 232.085938 299.316406 232.175781 299.128906 L 232.203125 299.222656 C 232.425781 298.882812 232.648438 298.53125 232.867188 298.171875 C 248.695312 272.121094 274.960938 265.933594 296.085938 265.933594 C 297.65625 265.933594 299.195312 265.96875 300.703125 266.03125 C 308.585938 266.359375 315.523438 267.46875 320.589844 268.558594 C 328.554688 270.269531 335.871094 275.699219 341.199219 282.804688 C 346.335938 289.652344 349.621094 298.050781 349.847656 306.152344 C 349.855469 306.449219 349.859375 306.742188 349.859375 307.039062 C 349.859375 308.527344 349.753906 310.003906 349.535156 311.457031 C 349.503906 311.675781 349.460938 311.894531 349.425781 312.109375 C 347.023438 296.980469 331.421875 282.308594 317.15625 279.246094 C 311.128906 277.949219 303.265625 276.625 294.597656 276.625 C 275.863281 276.625 253.378906 282.816406 237.550781 308.875 C 237.328125 309.234375 237.105469 309.582031 236.886719 309.925781 L 236.855469 309.832031 C 236.769531 310.019531 236.671875 310.203125 236.574219 310.390625 C 236.402344 310.652344 236.230469 310.914062 236.050781 311.164062 L 236.058594 311.375 C 225.796875 329.972656 196.253906 331.628906 186.035156 331.628906" fill="#f7bc61"/></g><g id="change1_9"><path d="M 205.382812 325.640625 C 204.972656 323.703125 204.4375 320.851562 203.925781 318.9375 C 192.921875 320.144531 182.515625 320.136719 182.515625 320.136719 C 177.8125 303.945312 151.757812 302.613281 156.480469 318.878906 C 158.21875 324.851562 160.824219 333.8125 160.824219 333.8125 C 166.933594 350.839844 179.339844 341.804688 189.296875 343.441406 C 193.820312 344.1875 199.757812 344.644531 205.65625 344.421875 C 206.6875 338.1875 206.738281 332.082031 205.382812 325.640625" fill="#fff"/></g><g id="change2_11"><path d="M 156.433594 312.21875 C 157.714844 311.609375 159.128906 311.464844 160.519531 311.5625 C 161.914062 311.679688 163.316406 312.089844 164.574219 312.824219 C 165.832031 313.550781 166.925781 314.621094 167.636719 315.890625 C 168.351562 317.15625 168.6875 318.597656 168.503906 319.996094 C 167.601562 318.914062 166.808594 317.976562 165.9375 317.1875 C 165.085938 316.394531 164.183594 315.742188 163.203125 315.167969 C 162.226562 314.59375 161.171875 314.101562 160.042969 313.636719 C 158.914062 313.164062 157.734375 312.734375 156.433594 312.21875" fill="#231f20"/></g><g id="change2_12"><path d="M 163.226562 308.457031 C 164.320312 307.878906 165.582031 307.691406 166.835938 307.839844 C 168.085938 307.996094 169.351562 308.546875 170.347656 309.414062 C 171.347656 310.277344 172.042969 311.414062 172.421875 312.589844 C 172.796875 313.769531 172.890625 314.976562 172.660156 316.195312 C 171.804688 315.28125 171.175781 314.367188 170.523438 313.566406 C 169.882812 312.761719 169.253906 312.0625 168.5625 311.460938 C 167.871094 310.859375 167.121094 310.347656 166.238281 309.882812 C 165.339844 309.40625 164.359375 309.007812 163.226562 308.457031" fill="#231f20"/></g><g id="change2_13"><path d="M 157.316406 320.535156 C 158.410156 319.960938 159.671875 319.773438 160.921875 319.921875 C 162.179688 320.074219 163.441406 320.625 164.433594 321.496094 C 165.4375 322.359375 166.132812 323.496094 166.507812 324.664062 C 166.882812 325.847656 166.980469 327.054688 166.75 328.277344 C 165.894531 327.363281 165.269531 326.449219 164.613281 325.648438 C 163.972656 324.839844 163.339844 324.140625 162.648438 323.542969 C 161.964844 322.941406 161.214844 322.429688 160.324219 321.960938 C 159.433594 321.484375 158.449219 321.085938 157.316406 320.535156" fill="#231f20"/></g><g id="change3_7"><path d="M 170.023438 237.511719 C 170.023438 249.246094 177.183594 258.546875 187.4375 278.449219 C 197.691406 298.355469 195.878906 307.929688 188.644531 324.816406 C 188.644531 324.816406 180.261719 323.089844 175.675781 331.148438 C 174.011719 334.078125 169.796875 344.417969 177.484375 344.417969 C 185.046875 344.417969 200.105469 343.4375 204.550781 343.4375 C 211.1875 343.4375 213.59375 337.40625 213.59375 327.757812 C 213.59375 319.316406 229.957031 300.160156 226.109375 293.378906 C 220.394531 283.28125 219.328125 282.144531 220.910156 276.1875 C 224.269531 263.558594 230.539062 250.164062 231.089844 232.3125 C 231.542969 217.609375 218.425781 192.8125 197.597656 192.8125 C 182.6875 192.8125 170.023438 203.96875 170.023438 237.511719" fill="#f3aa46"/></g><g id="change1_10"><path d="M 215.578125 315.519531 C 211.984375 310.453125 208.382812 304.371094 202.167969 302.210938 C 199.726562 301.363281 197.207031 301.03125 194.621094 300.878906 C 194.167969 308.394531 192.144531 314.796875 188.191406 324.019531 C 188.191406 324.019531 179.792969 323.09375 175.066406 331.40625 C 173.351562 334.429688 169 345.097656 176.933594 345.097656 C 184.734375 345.097656 199.511719 345.132812 204.101562 345.132812 C 210.941406 345.132812 214.1875 337.863281 214.1875 327.90625 C 214.1875 325.375 215.476562 321.089844 217.40625 317.273438 C 216.726562 316.441406 216.207031 316.398438 215.578125 315.519531" fill="#fff"/></g><g id="change2_14"><path d="M 175.753906 344.527344 C 175.523438 343.125 175.777344 341.726562 176.261719 340.417969 C 176.761719 339.113281 177.550781 337.882812 178.605469 336.878906 C 179.65625 335.871094 180.988281 335.117188 182.40625 334.789062 C 183.816406 334.460938 185.292969 334.539062 186.585938 335.105469 C 185.296875 335.671875 184.175781 336.167969 183.175781 336.78125 C 182.175781 337.382812 181.300781 338.066406 180.472656 338.847656 C 179.648438 339.628906 178.882812 340.5 178.121094 341.453125 C 177.355469 342.40625 176.609375 343.421875 175.753906 344.527344" fill="#231f20"/></g><g id="change2_15"><path d="M 174.039062 336.949219 C 173.789062 335.742188 173.960938 334.476562 174.449219 333.316406 C 174.945312 332.15625 175.832031 331.097656 176.941406 330.386719 C 178.050781 329.664062 179.339844 329.3125 180.566406 329.277344 C 181.804688 329.242188 182.992188 329.488281 184.101562 330.054688 C 182.984375 330.617188 181.929688 330.96875 180.980469 331.371094 C 180.023438 331.765625 179.179688 332.171875 178.410156 332.664062 C 177.644531 333.160156 176.9375 333.738281 176.242188 334.460938 C 175.535156 335.1875 174.878906 336.015625 174.039062 336.949219" fill="#231f20"/></g><g id="change2_16"><path d="M 184.441406 344.980469 C 184.191406 343.769531 184.363281 342.507812 184.855469 341.347656 C 185.355469 340.1875 186.230469 339.125 187.347656 338.414062 C 188.453125 337.691406 189.742188 337.339844 190.96875 337.308594 C 192.207031 337.273438 193.394531 337.519531 194.503906 338.082031 C 193.386719 338.644531 192.335938 338.996094 191.386719 339.398438 C 190.429688 339.792969 189.578125 340.203125 188.8125 340.695312 C 188.042969 341.191406 187.347656 341.769531 186.648438 342.492188 C 185.941406 343.214844 185.28125 344.042969 184.441406 344.980469" fill="#231f20"/></g><g id="change7_1"><path d="M 172.179688 348.019531 C 168.265625 348.019531 162.378906 348.019531 162.378906 348.019531 C 151.007812 347.3125 154.605469 338.335938 151.867188 332.597656 C 134.238281 295.734375 149.984375 265.421875 161.726562 267.597656 C 168.550781 268.863281 172.886719 276.507812 171.613281 283.949219 C 169.816406 294.445312 166.84375 332.742188 166.84375 332.742188 C 177.464844 332.742188 182.851562 348.019531 172.179688 348.019531" fill="#bdbcbc"/></g><g id="change2_17"><path d="M 177.488281 345.042969 C 177.632812 344.332031 177.480469 343.640625 177.210938 343.007812 C 176.925781 342.378906 176.492188 341.804688 175.9375 341.359375 C 174.839844 340.464844 173.234375 340.117188 171.960938 340.785156 C 172.566406 341.179688 173.074219 341.476562 173.542969 341.789062 C 174.007812 342.09375 174.425781 342.402344 174.835938 342.730469 C 175.242188 343.0625 175.648438 343.410156 176.074219 343.796875 C 176.503906 344.179688 176.945312 344.589844 177.488281 345.042969" fill="#231f20"/></g><g id="change2_18"><path d="M 173.664062 347.71875 C 173.9375 347.050781 173.910156 346.339844 173.746094 345.667969 C 173.570312 345.003906 173.210938 344.363281 172.703125 343.851562 C 171.691406 342.8125 170.101562 342.367188 168.808594 342.949219 C 169.371094 343.386719 169.863281 343.714844 170.289062 344.054688 C 170.722656 344.390625 171.09375 344.726562 171.453125 345.085938 C 171.804688 345.445312 172.144531 345.835938 172.5 346.269531 L 173.664062 347.71875" fill="#231f20"/></g><g id="change1_11"><path d="M 159.261719 237.691406 C 160.066406 241.230469 160.355469 244.929688 160.378906 248.511719 C 160.429688 256.390625 162.214844 298.503906 105.816406 320.636719 C 93.617188 325.421875 82.066406 332.167969 69.453125 335.378906 C 68.898438 335.519531 68.324219 335.671875 67.742188 335.824219 C 68.523438 337.171875 69.363281 338.480469 70.300781 339.730469 L 142.191406 339.730469 C 154.269531 336.089844 172.300781 304.621094 172.300781 288.390625 C 172.300781 262.601562 172.300781 243.261719 172.300781 243.261719 L 159.261719 237.691406" fill="#fff"/></g><g id="change7_2"><path d="M 130.195312 225.269531 C 130.195312 225.269531 133.785156 245.175781 97.90625 260.890625 C 78.851562 269.234375 67.367188 284.902344 63.496094 301.125 C 60.535156 298.90625 57.039062 295.222656 58.648438 290.9375 C 59.160156 289.566406 59.863281 287.890625 60.671875 285.949219 C 63.761719 278.5625 67.984375 268.441406 69.113281 258.300781 C 70.976562 241.570312 63.140625 233.214844 56.242188 229.144531 C 53.578125 227.570312 50.136719 228.464844 48.558594 231.132812 C 46.988281 233.800781 47.878906 237.242188 50.542969 238.8125 C 63.617188 246.515625 57.285156 264.949219 50.320312 281.625 C 49.464844 283.664062 48.726562 285.429688 48.140625 286.996094 C 43.203125 300.171875 54.964844 309.96875 62.03125 313.394531 C 62.015625 323.074219 64.757812 332.34375 70.300781 339.730469 L 142.191406 339.730469 C 154.269531 336.089844 172.300781 304.621094 172.300781 288.390625 C 172.300781 262.601562 172.300781 243.261719 172.300781 243.261719 L 130.195312 225.269531" fill="#bdbcbc"/></g><g id="change7_3"><path d="M 158.535156 348.019531 C 154.617188 348.019531 148.738281 348.019531 148.738281 348.019531 C 137.359375 347.3125 140.964844 338.335938 138.222656 332.597656 C 120.601562 295.734375 136.339844 265.421875 148.078125 267.597656 C 154.90625 268.863281 159.238281 276.507812 157.972656 283.949219 C 156.175781 294.445312 153.199219 332.742188 153.199219 332.742188 C 163.820312 332.742188 169.207031 348.019531 158.535156 348.019531" fill="#bdbcbc"/></g><g id="change2_19"><path d="M 163.84375 345.042969 C 163.988281 344.332031 163.835938 343.640625 163.5625 343.007812 C 163.28125 342.378906 162.847656 341.804688 162.292969 341.359375 C 161.191406 340.464844 159.589844 340.117188 158.320312 340.785156 C 158.921875 341.179688 159.433594 341.476562 159.898438 341.789062 C 160.359375 342.09375 160.777344 342.402344 161.1875 342.730469 C 161.601562 343.0625 162.007812 343.410156 162.433594 343.796875 C 162.859375 344.179688 163.304688 344.589844 163.84375 345.042969" fill="#231f20"/></g><g id="change2_20"><path d="M 160.023438 347.71875 C 160.292969 347.050781 160.269531 346.339844 160.097656 345.667969 C 159.925781 345.003906 159.566406 344.363281 159.0625 343.851562 C 158.050781 342.8125 156.457031 342.367188 155.164062 342.949219 C 155.730469 343.386719 156.21875 343.714844 156.644531 344.054688 C 157.078125 344.390625 157.445312 344.726562 157.808594 345.085938 C 158.160156 345.445312 158.5 345.835938 158.855469 346.269531 L 160.023438 347.71875" fill="#231f20"/></g><g id="change7_4"><path d="M 127.449219 199.386719 C 127.449219 199.386719 122.519531 177.546875 132.5625 170.71875 C 132.5625 170.71875 148.492188 173.648438 152.894531 185.863281 C 152.894531 185.863281 143.648438 198.023438 127.449219 199.386719" fill="#bdbcbc"/></g><g id="change1_12"><path d="M 133.226562 196.996094 C 133.226562 196.996094 130.09375 183.128906 136.46875 178.789062 C 136.46875 178.789062 146.589844 180.652344 149.378906 188.40625 C 149.378906 188.40625 143.511719 196.132812 133.226562 196.996094" fill="#fff"/></g><g id="change7_5"><path d="M 192.257812 213.4375 C 192.257812 213.4375 205.792969 195.605469 199.480469 185.234375 C 199.480469 185.234375 183.769531 181.304688 174.707031 190.59375 C 174.707031 190.59375 178.085938 205.492188 192.257812 213.4375" fill="#bdbcbc"/></g><g id="change1_13"><path d="M 187.996094 208.875 C 187.996094 208.875 196.59375 197.550781 192.585938 190.960938 C 192.585938 190.960938 182.605469 188.464844 176.847656 194.363281 C 176.847656 194.363281 178.992188 203.824219 187.996094 208.875" fill="#fff"/></g><g id="change7_6"><path d="M 119.484375 211.300781 C 112.035156 228.6875 130.800781 240.21875 151.515625 244.714844 C 172.238281 249.203125 195.070312 246.453125 194.519531 227.566406 C 193.878906 206.054688 180.15625 189.335938 164.273438 185.894531 C 148.394531 182.449219 128.269531 190.808594 119.484375 211.300781" fill="#bdbcbc"/></g><g id="change1_14"><path d="M 158.285156 213.964844 C 175.808594 217.765625 188.089844 229.695312 185.726562 240.609375 C 185.503906 241.613281 185.167969 242.570312 184.730469 243.480469 C 176.269531 247.484375 163.539062 247.316406 151.515625 244.714844 C 139.375 242.078125 127.910156 237.023438 121.996094 229.792969 C 121.980469 228.8125 122.070312 227.824219 122.285156 226.855469 C 124.648438 215.9375 140.769531 210.164062 158.285156 213.964844" fill="#fff"/></g><g id="change2_21"><path d="M 137.660156 204.753906 C 137.015625 207.21875 137.761719 209.550781 139.328125 209.964844 C 140.894531 210.367188 142.6875 208.699219 143.328125 206.230469 C 143.980469 203.769531 143.230469 201.433594 141.660156 201.027344 C 140.097656 200.617188 138.304688 202.285156 137.660156 204.753906" fill="#231f20"/></g><g id="change2_22"><path d="M 178.882812 215.515625 C 178.234375 217.980469 178.984375 220.3125 180.550781 220.722656 C 182.113281 221.132812 183.90625 219.464844 184.550781 216.996094 C 185.199219 214.53125 184.445312 212.195312 182.882812 211.789062 C 181.316406 211.382812 179.523438 213.050781 178.882812 215.515625" fill="#231f20"/></g><g id="change8_1"><path d="M 156.746094 238.296875 L 156.402344 239.785156 C 156.011719 241.460938 154.34375 242.503906 152.664062 242.113281 C 150.992188 241.722656 149.953125 240.054688 150.339844 238.378906 L 150.667969 236.976562 C 150.667969 236.976562 152.179688 236.820312 153.210938 235.703125 C 154.300781 234.523438 154.691406 234.234375 155.113281 235.859375 C 155.585938 237.703125 156.746094 238.296875 156.746094 238.296875" fill="#f8a3d6"/></g><g id="change2_23"><path d="M 161.96875 232.539062 L 161.699219 232.507812 C 161.132812 232.507812 160.644531 232.894531 160.515625 233.449219 L 160.019531 235.582031 C 159.914062 236.023438 159.671875 236.402344 159.339844 236.632812 C 158.882812 236.949219 158.253906 237.011719 157.441406 236.820312 C 156.71875 236.65625 156.300781 236.25 156.085938 235.507812 C 155.875 234.777344 155.957031 234.007812 156.007812 233.683594 C 156.050781 233.550781 156.078125 233.429688 156.097656 233.359375 L 158.042969 224.96875 L 158.148438 224.328125 L 155.796875 223.792969 L 153.707031 232.808594 L 153.65625 233.054688 C 153.523438 233.527344 153.257812 234.199219 152.769531 234.738281 C 152.246094 235.3125 151.695312 235.484375 150.972656 235.320312 C 150.203125 235.144531 149.671875 234.820312 149.386719 234.367188 C 149.085938 233.878906 149.144531 233.34375 149.210938 233.070312 L 149.699219 230.945312 C 149.773438 230.632812 149.722656 230.304688 149.550781 230.027344 C 149.378906 229.746094 149.109375 229.558594 148.785156 229.480469 C 148.144531 229.335938 147.480469 229.75 147.332031 230.394531 L 146.839844 232.519531 C 146.378906 234.507812 147.308594 236.96875 150.425781 237.691406 C 151.730469 237.992188 152.996094 237.71875 154.019531 236.894531 C 154.574219 238.078125 155.570312 238.886719 156.894531 239.191406 C 157.367188 239.300781 157.832031 239.355469 158.265625 239.355469 C 159.4375 239.355469 160.25 238.964844 160.726562 238.632812 C 161.84375 237.851562 162.246094 236.730469 162.390625 236.128906 L 162.878906 234 C 163.03125 233.351562 162.625 232.695312 161.96875 232.539062" fill="#231f20"/></g><g id="change2_24"><path d="M 147.886719 220.949219 C 147.128906 224.207031 150.644531 227.808594 155.730469 228.988281 C 160.824219 230.171875 165.566406 228.484375 166.316406 225.222656 C 167.074219 221.964844 163.5625 218.359375 158.472656 217.183594 C 153.382812 216 148.640625 217.6875 147.886719 220.949219" fill="#231f20"/></g><g id="change2_25"><path d="M 146.230469 217.4375 C 146.421875 217.4375 146.617188 217.355469 146.746094 217.1875 C 146.976562 216.898438 146.925781 216.480469 146.640625 216.253906 C 146.453125 216.109375 128.355469 201.976562 110.285156 202.183594 C 109.921875 202.1875 109.621094 202.488281 109.628906 202.855469 C 109.632812 203.222656 109.933594 203.511719 110.292969 203.511719 L 110.300781 203.511719 C 110.441406 203.511719 110.582031 203.511719 110.71875 203.511719 C 128.160156 203.511719 145.640625 217.15625 145.816406 217.296875 C 145.9375 217.390625 146.082031 217.4375 146.230469 217.4375" fill="#231f20"/></g><g id="change2_26"><path d="M 144.742188 219.179688 C 144.972656 219.179688 145.195312 219.058594 145.316406 218.84375 C 145.5 218.523438 145.390625 218.117188 145.074219 217.9375 C 144.859375 217.816406 123.5625 205.734375 105.078125 206.675781 C 104.710938 206.6875 104.433594 207.003906 104.449219 207.371094 C 104.46875 207.734375 104.789062 208.019531 105.144531 207.996094 C 123.234375 207.074219 144.203125 218.972656 144.414062 219.089844 C 144.519531 219.148438 144.632812 219.179688 144.742188 219.179688" fill="#231f20"/></g><g id="change2_27"><path d="M 144.121094 221.425781 C 144.363281 221.425781 144.597656 221.292969 144.714844 221.058594 C 144.878906 220.734375 144.746094 220.335938 144.425781 220.167969 C 144.253906 220.078125 127.054688 211.488281 106.953125 212.691406 C 106.585938 212.714844 106.304688 213.027344 106.324219 213.394531 C 106.347656 213.761719 106.667969 214.046875 107.027344 214.019531 C 126.757812 212.84375 143.652344 221.265625 143.820312 221.355469 C 143.914062 221.402344 144.019531 221.425781 144.121094 221.425781" fill="#231f20"/></g><g id="change2_28"><path d="M 143.777344 223.644531 C 144.0625 223.644531 144.328125 223.460938 144.414062 223.175781 C 144.519531 222.824219 144.328125 222.453125 143.980469 222.347656 C 143.8125 222.296875 127.351562 217.253906 113.058594 218.710938 C 112.695312 218.746094 112.429688 219.070312 112.464844 219.4375 C 112.503906 219.804688 112.820312 220.074219 113.195312 220.03125 C 127.222656 218.605469 143.417969 223.5625 143.582031 223.613281 L 143.777344 223.644531" fill="#231f20"/></g><g id="change2_29"><path d="M 206.441406 232.609375 C 206.652344 232.609375 206.859375 232.511719 206.992188 232.324219 C 207.199219 232.023438 207.125 231.609375 206.824219 231.402344 C 191.945312 221.171875 169.015625 222.855469 168.785156 222.875 C 168.421875 222.902344 168.148438 223.226562 168.175781 223.589844 C 168.203125 223.953125 168.507812 224.226562 168.890625 224.199219 C 169.109375 224.183594 191.585938 222.535156 206.070312 232.496094 C 206.183594 232.574219 206.3125 232.609375 206.441406 232.609375" fill="#231f20"/></g><g id="change2_30"><path d="M 208.101562 239.191406 C 208.304688 239.191406 208.503906 239.105469 208.632812 238.929688 C 208.855469 238.636719 208.792969 238.21875 208.5 238 C 193.664062 226.9375 169.238281 225.132812 168.992188 225.117188 C 168.632812 225.09375 168.3125 225.363281 168.285156 225.730469 C 168.261719 226.097656 168.539062 226.417969 168.90625 226.4375 C 169.144531 226.457031 193.1875 228.234375 207.703125 239.066406 C 207.824219 239.152344 207.964844 239.191406 208.101562 239.191406" fill="#231f20"/></g><g id="change2_31"><path d="M 203.242188 243.261719 C 203.445312 243.261719 203.644531 243.167969 203.773438 242.996094 C 203.996094 242.703125 203.9375 242.289062 203.644531 242.066406 C 187.613281 229.898438 168.539062 227.460938 168.34375 227.4375 C 167.980469 227.394531 167.648438 227.652344 167.605469 228.011719 C 167.5625 228.378906 167.820312 228.710938 168.1875 228.753906 C 168.371094 228.777344 187.109375 231.179688 202.84375 243.121094 C 202.960938 243.21875 203.097656 243.261719 203.242188 243.261719" fill="#231f20"/></g><g id="change2_32"><path d="M 194.574219 244.753906 C 194.769531 244.753906 194.960938 244.671875 195.089844 244.511719 C 195.320312 244.230469 195.28125 243.8125 195 243.578125 C 183.933594 234.417969 167.449219 229.449219 167.285156 229.402344 C 166.929688 229.292969 166.5625 229.496094 166.457031 229.851562 C 166.351562 230.199219 166.554688 230.570312 166.902344 230.675781 C 167.066406 230.722656 183.296875 235.613281 194.152344 244.601562 C 194.273438 244.703125 194.425781 244.753906 194.574219 244.753906" fill="#231f20"/></g><g id="change7_7"><path d="M 75.519531 306.347656 C 84.734375 304.15625 106.734375 301.804688 117.9375 322.175781 C 118.039062 322.367188 118.144531 322.558594 118.253906 322.738281 L 118.269531 322.6875 C 118.3125 322.789062 118.355469 322.890625 118.402344 322.988281 C 118.488281 323.128906 118.570312 323.269531 118.65625 323.402344 L 118.65625 323.515625 C 124.691406 335.613281 142.285156 334.476562 142.285156 334.476562 C 144.511719 325.996094 156.664062 324.75 154.429688 333.269531 C 153.605469 336.394531 152.367188 341.089844 152.367188 341.089844 C 150.332031 347.375 146.882812 346.769531 143.375 346.160156 C 141.90625 345.90625 140.425781 345.652344 139.03125 345.90625 C 133.089844 346.988281 125.476562 347.546875 121.101562 346.960938 C 120.347656 346.859375 117.152344 345.890625 116.652344 345.40625 C 116.652344 345.414062 116.121094 345.164062 115.445312 344.914062 C 114.582031 344.59375 113.488281 344.273438 112.96875 344.484375 C 86.472656 355.238281 64.230469 349.160156 61.527344 329.300781 C 60.222656 319.777344 67.128906 308.34375 75.519531 306.347656" fill="#bdbcbc"/></g><g id="change1_15"><path d="M 61.367188 326.914062 C 61.367188 324.683594 61.765625 322.398438 62.484375 320.195312 C 62.484375 320.199219 62.488281 320.207031 62.488281 320.210938 C 61.769531 322.40625 61.367188 324.6875 61.367188 326.914062" fill="#fff"/></g><g id="change9_1"><path d="M 138.742188 334.425781 C 137.914062 334.371094 136.972656 334.28125 135.957031 334.136719 C 136.910156 334.269531 137.84375 334.359375 138.742188 334.425781 M 128.6875 332.261719 C 124.742188 330.683594 120.902344 328.011719 118.65625 323.515625 L 118.65625 323.402344 C 118.570312 323.269531 118.488281 323.128906 118.402344 322.988281 C 118.355469 322.890625 118.3125 322.789062 118.269531 322.6875 L 118.253906 322.738281 C 118.144531 322.558594 118.039062 322.367188 117.9375 322.175781 C 110.28125 308.253906 97.582031 304.945312 87.367188 304.945312 C 82.636719 304.945312 78.4375 305.65625 75.519531 306.347656 C 69.734375 307.722656 64.65625 313.582031 62.488281 320.210938 C 62.488281 320.207031 62.484375 320.199219 62.484375 320.195312 C 64.65625 313.566406 69.734375 307.703125 75.519531 306.328125 C 78.4375 305.636719 82.636719 304.925781 87.367188 304.925781 C 97.582031 304.925781 110.28125 308.230469 117.9375 322.15625 C 118.039062 322.347656 118.144531 322.535156 118.253906 322.71875 L 118.269531 322.671875 C 118.3125 322.769531 118.355469 322.867188 118.402344 322.96875 C 118.488281 323.105469 118.570312 323.246094 118.65625 323.382812 L 118.65625 323.496094 C 120.546875 327.273438 123.570312 329.808594 127.003906 331.503906 C 127.566406 331.78125 128.125 332.03125 128.6875 332.261719" fill="#cdcccc"/></g><g id="change9_2"><path d="M 131 337.570312 C 125.910156 337.570312 120.199219 335.746094 116.394531 329.234375 L 116.394531 329.121094 C 116.308594 328.984375 116.226562 328.847656 116.136719 328.710938 C 116.097656 328.609375 116.050781 328.511719 116.003906 328.410156 L 115.992188 328.460938 C 115.886719 328.273438 115.777344 328.089844 115.671875 327.898438 C 108.019531 313.972656 97.144531 310.660156 88.085938 310.660156 C 83.894531 310.660156 80.089844 311.367188 77.171875 312.0625 C 70.28125 313.699219 62.734375 321.539062 61.574219 329.628906 C 61.554688 329.511719 61.539062 329.394531 61.527344 329.28125 C 61.417969 328.503906 61.367188 327.710938 61.367188 326.914062 C 61.367188 324.6875 61.769531 322.40625 62.488281 320.210938 C 64.65625 313.582031 69.734375 307.722656 75.519531 306.347656 C 78.4375 305.65625 82.636719 304.945312 87.367188 304.945312 C 97.582031 304.945312 110.28125 308.253906 117.9375 322.175781 C 118.039062 322.367188 118.144531 322.558594 118.253906 322.738281 L 118.269531 322.6875 C 118.3125 322.789062 118.355469 322.890625 118.402344 322.988281 C 118.488281 323.128906 118.570312 323.269531 118.65625 323.402344 L 118.65625 323.515625 C 120.902344 328.011719 124.742188 330.683594 128.6875 332.261719 C 131.167969 333.269531 133.628906 333.820312 135.957031 334.136719 C 136.972656 334.28125 137.914062 334.371094 138.742188 334.425781 C 139.972656 334.515625 141.144531 334.5625 142.238281 334.601562 C 142.9375 334.628906 137.46875 337.570312 131 337.570312" fill="#cdcccc"/></g><g id="change2_33"><path d="M 154.890625 329.6875 C 154.269531 329.359375 153.589844 329.28125 152.917969 329.335938 C 152.238281 329.398438 151.5625 329.617188 150.960938 330.007812 C 150.347656 330.398438 149.816406 330.96875 149.472656 331.648438 C 149.128906 332.324219 148.964844 333.097656 149.054688 333.84375 C 149.492188 333.261719 149.871094 332.761719 150.296875 332.339844 C 150.710938 331.917969 151.144531 331.566406 151.617188 331.261719 C 152.09375 330.957031 152.601562 330.691406 153.144531 330.445312 C 153.6875 330.191406 154.261719 329.960938 154.890625 329.6875" fill="#231f20"/></g><g id="change2_34"><path d="M 151.605469 327.675781 C 151.078125 327.367188 150.46875 327.265625 149.859375 327.34375 C 149.257812 327.429688 148.644531 327.722656 148.160156 328.1875 C 147.679688 328.644531 147.34375 329.257812 147.160156 329.882812 C 146.980469 330.511719 146.929688 331.160156 147.046875 331.8125 C 147.460938 331.324219 147.761719 330.835938 148.074219 330.40625 C 148.386719 329.976562 148.691406 329.601562 149.027344 329.28125 C 149.359375 328.960938 149.726562 328.6875 150.152344 328.4375 C 150.585938 328.183594 151.058594 327.96875 151.605469 327.675781" fill="#231f20"/></g><g id="change2_35"><path d="M 154.464844 334.132812 C 153.9375 333.824219 153.328125 333.726562 152.722656 333.804688 C 152.113281 333.886719 151.503906 334.179688 151.023438 334.644531 C 150.535156 335.105469 150.203125 335.714844 150.019531 336.339844 C 149.835938 336.972656 149.789062 337.613281 149.902344 338.269531 C 150.316406 337.78125 150.621094 337.292969 150.9375 336.863281 C 151.246094 336.433594 151.554688 336.058594 151.886719 335.738281 C 152.214844 335.417969 152.578125 335.144531 153.011719 334.894531 C 153.441406 334.640625 153.914062 334.425781 154.464844 334.132812" fill="#231f20"/></g></g></svg>